# xmcd
#
# Track frame offsets:
#	150
#	14761
#	27803
#	39291
#	54014
#	65400
#	80462
#	94748
#	107037
#	116586
#	127974
#
# Disc length: 1887 seconds
#
# Revision: 0
# Processed by: cddbd v1.5.2PL0 Copyright (c) Steve Scherf et al.
# Submitted via: EasyCDDAExtractor 16.0.6.1
#
DISCID=81075d0b
DTITLE=Νταλάρας Γιώργος-Αλεξίου Χάρις - Μικρά Ασία-Α. Καλδάρα-Πυθαγόρα
DYEAR=1972
DGENRE=Λαϊκή
TTITLE0=Νταλάρας Γιώργος - Μέσ' στου Βοσπόρου τα στενά
TTITLE1=Νταλάρας Γιώργος - Οι καμπάνες της Αγια Σοφιάς
TTITLE2=Αλεξίου Χάρις - Δυό παλληκάρια απ' τ' Αϊβαλί
TTITLE3=Νταλάρας Γιώργος - Η προσφυγιά
TTITLE4=Νταλάρας Γιώργος - Πέτρα-πέτρα χτίσαμε
TTITLE5=Νταλάρας Γιώργος - Η Σμύρνη
TTITLE6=Νταλάρας Γιώργος - Γιορτή Ζεϊμπέκηδων
TTITLE7=Νταλάρας Γιώργος - Το σπίτι μου το πατρικό
TTITLE8=Αλεξίου Χάρις - Πήρε φωτιά το Κορδελιό
TTITLE9=Νταλάρας Γιώργος - Τι να θυμηθώ, τι να ξεχάσω [διαβ. ο Γιάννης Φέρτης]
TTITLE10=Αλεξίου Χάρις - Ο Μαρμαρωμένος Βασιλιάς
EXTD=
EXTT0=
EXTT1=
EXTT2=
EXTT3=
EXTT4=
EXTT5=
EXTT6=
EXTT7=
EXTT8=
EXTT9=
EXTT10=
PLAYORDER=
